# xmcd
#
# Track frame offsets:
#	150
#	19052
#	32975
#	49249
#	62439
#	75503
#	91697
#	104776
#	118850
#	136189
#	150885
#	168664
#	184608
#	198348
#
# Disc length: 2854 seconds
#
# Revision: 0
# Processed by: cddbd v1.5.2PL0 Copyright (c) Steve Scherf et al.
# Submitted via: EasyCDDAExtractor 2010.6.0.0
#
DISCID=af0b240e
DTITLE=Various Artist - Mr Music Country  04 2012
DYEAR=2012
DGENRE=Country
TTITLE0=Montgomery Gentry - Something to be proud of
TTITLE1=Little Big Town - Little white church
TTITLE2=Kenny Rogers - The last ten years (Superman)
TTITLE3=Carlene Carter - Come on back
TTITLE4=Luke Bryan - Rain is a good thing
TTITLE5=Abalone Dots - Craighead county sky
TTITLE6=Tracy Lawrence - Time marches on
TTITLE7=Eric Church - Smoke a little smoke
TTITLE8=Kelly Willis - Don't come the cowboy with me Sonny Jim
TTITLE9=Blackhawk - Like there ain't no yesterday
TTITLE10=Lee Roy Parnell - She won't be lonely long
TTITLE11=Jerrod Niemann - What do you want
TTITLE12=Keith Urban - Where the blacktop ends
TTITLE13=Radney Foster - Nobody wins
EXTD=
EXTT0=
EXTT1=
EXTT2=
EXTT3=
EXTT4=
EXTT5=
EXTT6=
EXTT7=
EXTT8=
EXTT9=
EXTT10=
EXTT11=
EXTT12=
EXTT13=
PLAYORDER=
